<svg version="1.1" viewBox="0.0 0.0 232.5275590551181 234.4698162729659" fill="none" stroke="none" stroke-linecap="square" stroke-miterlimit="10" xmlns:xlink="http://www.w3.org/1999/xlink" xmlns="http://www.w3.org/2000/svg"><clipPath id="p.0"><path d="m0 0l232.52756 0l0 234.46982l-232.52756 0l0 -234.46982z" clip-rule="nonzero"/></clipPath><g clip-path="url(#p.0)"><path fill="#000000" fill-opacity="0.0" d="m0 0l232.52756 0l0 234.46982l-232.52756 0z" fill-rule="evenodd"/><path fill="#990011" d="m4.8 34.56315l0 0c0 -15.907539 12.89561 -28.803148 28.80315 -28.803148l0 0c7.6390686 0 14.965263 3.0346088 20.366901 8.436247c5.401638 5.401638 8.436249 12.727833 8.436249 20.366901l0 0c0 15.907543 -12.895611 28.80315 -28.80315 28.80315l0 0c-15.907539 0 -28.80315 -12.895607 -28.80315 -28.80315zm19.196148 0c0 5.3058014 4.301201 9.607002 9.607002 9.607002c5.3058014 0 9.607002 -4.301201 9.607002 -9.607002c0 -5.3057995 -4.301201 -9.607002 -9.607002 -9.607002l0 0c-5.3058014 0 -9.607002 4.301203 -9.607002 9.607002z" fill-rule="evenodd"/><path fill="#990011" d="m25.616798 57.695538l15.433071 0l0 35.559055l-15.433071 0z" fill-rule="evenodd"/><path fill="#990011" d="m120.965744 50.766315l10.897629 -10.89764l52.503937 52.503937l-10.897629 10.897636z" fill-rule="evenodd"/><path fill="#990011" d="m38.136345 133.27287l10.897636 -10.897636l52.503937 52.503944l-10.897636 10.897629z" fill-rule="evenodd"/><path fill="#990011" d="m176.75984 192.26772l0 15.433075l-48.18898 0l0 -15.433075z" fill-rule="evenodd"/><path fill="#990011" d="m87.36 34.56315l0 0c0 -15.907539 12.895607 -28.803148 28.803146 -28.803148l0 0c7.639076 0 14.965271 3.0346088 20.366898 8.436247c5.401642 5.401638 8.436249 12.727833 8.436249 20.366901l0 0c0 15.907543 -12.895599 28.80315 -28.803146 28.80315l0 0c-15.907539 0 -28.803146 -12.895607 -28.803146 -28.80315zm19.196144 0c0 5.3058014 4.301201 9.607002 9.607002 9.607002c5.3058014 0 9.607002 -4.301201 9.607002 -9.607002c0 -5.3057995 -4.301201 -9.607002 -9.607002 -9.607002l0 0c-5.3058014 0 -9.607002 4.301203 -9.607002 9.607002z" fill-rule="evenodd"/><path fill="#990011" d="m169.9181 34.564304l0 0c0 -15.907539 12.895615 -28.80315 28.803146 -28.80315l0 0c7.639084 0 14.965271 3.0346093 20.366913 8.436247c5.401642 5.401639 8.436249 12.727832 8.436249 20.366901l0 0c0 15.907539 -12.895615 28.80315 -28.803162 28.80315l0 0c-15.907532 0 -28.803146 -12.895611 -28.803146 -28.80315zm19.196152 0c0 5.3058014 4.3012085 9.607002 9.606995 9.607002c5.3058014 0 9.60701 -4.301201 9.60701 -9.607002c0 -5.3058014 -4.3012085 -9.607002 -9.60701 -9.607002l0 0c-5.305786 0 -9.606995 4.301201 -9.606995 9.607002z" fill-rule="evenodd"/><path fill="#990011" d="m4.529659 117.123146l0 0c0 -15.907539 12.895609 -28.803146 28.80315 -28.803146l0 0c7.6390686 0 14.965263 3.034607 20.366901 8.436249c5.401638 5.401634 8.436249 12.727829 8.436249 20.366898l0 0c0 15.907539 -12.895611 28.803154 -28.80315 28.803154l0 0c-15.907541 0 -28.80315 -12.895615 -28.80315 -28.803154zm19.196146 0c0 5.3058014 4.301203 9.607002 9.607004 9.607002c5.3058014 0 9.607002 -4.301201 9.607002 -9.607002c0 -5.305794 -4.301201 -9.607002 -9.607002 -9.607002l0 0c-5.3058014 0 -9.607004 4.3012085 -9.607004 9.607002z" fill-rule="evenodd"/><path fill="#990011" d="m87.359055 117.123146l0 0c0 -15.907539 12.895607 -28.803146 28.803146 -28.803146l0 0c7.639076 0 14.965271 3.034607 20.366913 8.436249c5.4016266 5.401634 8.4362335 12.727829 8.4362335 20.366898l0 0c0 15.907539 -12.895599 28.803154 -28.803146 28.803154l0 0c-15.907539 0 -28.803146 -12.895615 -28.803146 -28.803154zm19.196144 0c0 5.3058014 4.3012085 9.607002 9.607002 9.607002c5.3058014 0 9.60701 -4.301201 9.60701 -9.607002c0 -5.305794 -4.3012085 -9.607002 -9.60701 -9.607002l0 0c-5.305794 0 -9.607002 4.3012085 -9.607002 9.607002z" fill-rule="evenodd"/><path fill="#990011" d="m169.92 117.123146l0 0c0 -15.907539 12.895615 -28.803146 28.803146 -28.803146l0 0c7.6390686 0 14.965271 3.034607 20.366913 8.436249c5.4016266 5.401634 8.436249 12.727829 8.436249 20.366898l0 0c0 15.907539 -12.895615 28.803154 -28.803162 28.803154l0 0c-15.907532 0 -28.803146 -12.895615 -28.803146 -28.803154zm19.196152 0c0 5.3058014 4.301193 9.607002 9.606995 9.607002c5.3058014 0 9.60701 -4.301201 9.60701 -9.607002c0 -5.305794 -4.3012085 -9.607002 -9.60701 -9.607002l0 0c-5.3058014 0 -9.606995 4.3012085 -9.606995 9.607002z" fill-rule="evenodd"/><path fill="#990011" d="m4.8 199.68315l0 0c0 -15.907547 12.89561 -28.803146 28.80315 -28.803146l0 0c7.6390686 0 14.965263 3.034607 20.366901 8.436249c5.401638 5.4016266 8.436249 12.727829 8.436249 20.366898l0 0c0 15.907532 -12.895611 28.803146 -28.80315 28.803146l0 0c-15.907539 0 -28.80315 -12.895615 -28.80315 -28.803146zm19.196148 0c0 5.3058014 4.301201 9.606995 9.607002 9.606995c5.3058014 0 9.607002 -4.301193 9.607002 -9.606995c0 -5.3058014 -4.301201 -9.60701 -9.607002 -9.60701l0 0c-5.3058014 0 -9.607002 4.3012085 -9.607002 9.60701z" fill-rule="evenodd"/><path fill="#990011" d="m87.2252 199.68242l0 0c0 -15.907547 12.895607 -28.803146 28.803146 -28.803146l0 0c7.639076 0 14.965263 3.034607 20.366905 8.4362335c5.401642 5.401642 8.436249 12.727844 8.436249 20.366913l0 0c0 15.907532 -12.895615 28.803146 -28.803154 28.803146l0 0c-15.907539 0 -28.803146 -12.895615 -28.803146 -28.803146zm19.196144 0c0 5.3058014 4.301201 9.606995 9.607002 9.606995c5.3058014 0 9.607002 -4.301193 9.607002 -9.606995c0 -5.3058014 -4.301201 -9.60701 -9.607002 -9.60701l0 0c-5.3058014 0 -9.607002 4.3012085 -9.607002 9.60701z" fill-rule="evenodd"/><path fill="#990011" d="m169.65039 199.68315l0 0c0 -15.907547 12.895615 -28.803146 28.803146 -28.803146l0 0c7.639084 0 14.965271 3.034607 20.366913 8.436249c5.401642 5.4016266 8.436249 12.727829 8.436249 20.366898l0 0c0 15.907532 -12.895615 28.803146 -28.803162 28.803146l0 0c-15.907532 0 -28.803146 -12.895615 -28.803146 -28.803146zm19.196152 0c0 5.3058014 4.301193 9.606995 9.606995 9.606995c5.3058014 0 9.60701 -4.301193 9.60701 -9.606995c0 -5.3058014 -4.3012085 -9.60701 -9.60701 -9.60701l0 0c-5.3058014 0 -9.606995 4.3012085 -9.606995 9.60701z" fill-rule="evenodd"/></g></svg>